<?xml version="1.0" encoding="iso-8859-1"?>
<!-- Generator: Adobe Illustrator 18.0.0, SVG Export Plug-In . SVG Version: 6.00 Build 0)  -->
<!DOCTYPE svg PUBLIC "-//W3C//DTD SVG 1.1//EN" "http://www.w3.org/Graphics/SVG/1.1/DTD/svg11.dtd">
<svg version="1.1" id="Capa_1" xmlns="http://www.w3.org/2000/svg" xmlns:xlink="http://www.w3.org/1999/xlink" x="0px" y="0px"
	 viewBox="0 0 400 400" style="enable-background:new 0 0 400 400;" xml:space="preserve">
<g>
	<path d="M394.922,179.482l-19.271-36.553l-5.889-40.901c-2.07-14.384-11.109-26.818-24.154-33.225l-37.06-18.201L279.8,20.963
		C269.663,10.511,255.009,5.75,240.663,8.25L200,15.337L159.337,8.25c-14.342-2.501-29,2.261-39.137,12.713L91.453,50.602
		L54.392,68.803c-13.046,6.406-22.083,18.84-24.154,33.223l-5.888,40.903L5.077,179.482c-6.77,12.841-6.77,28.196,0,41.036
		l19.272,36.554l5.888,40.903c2.071,14.383,11.108,26.817,24.154,33.223l37.062,18.202l28.747,29.638
		c10.137,10.453,24.796,15.213,39.137,12.713L200,384.664l40.663,7.087c2.519,0.438,5.046,0.653,7.558,0.653
		c11.795,0,23.221-4.749,31.579-13.365l28.748-29.639l37.06-18.202c13.045-6.406,22.083-18.84,24.154-33.222l5.889-40.904
		l19.272-36.554C401.693,207.678,401.691,192.322,394.922,179.482z M200,338.097c-76.27,0-138.095-61.829-138.095-138.097
		S123.73,61.903,200,61.903c76.27,0,138.095,61.829,138.095,138.097S276.27,338.097,200,338.097z"/>
	<circle cx="183.976" cy="273.635" r="14.805"/>
	<circle cx="238.383" cy="273.635" r="14.805"/>
	<path d="M285.358,155.605H152.982l-7.61-19.435c-0.985-2.517-2.76-4.646-5.058-6.069l-13.992-8.667
		c-5.866-3.634-13.573-1.826-17.209,4.044c-3.635,5.869-1.824,13.574,4.045,17.209l10.453,6.475l36.084,93.496
		c1.1,2.859,3.846,4.745,6.91,4.745h89.145c3.064,0,5.811-1.886,6.91-4.745l29.609-76.994c0.877-2.276,0.574-4.837-0.807-6.848
		C290.081,156.807,287.798,155.605,285.358,155.605z"/>
</g>
<g>
</g>
<g>
</g>
<g>
</g>
<g>
</g>
<g>
</g>
<g>
</g>
<g>
</g>
<g>
</g>
<g>
</g>
<g>
</g>
<g>
</g>
<g>
</g>
<g>
</g>
<g>
</g>
<g>
</g>
</svg>
